<svg width="294" height="404" viewBox="0 0 294 404" fill="none" xmlns="http://www.w3.org/2000/svg">
<g id="back">
<path id="Back" d="M8 6C8 5.44772 8.44772 5 9 5H280C285.523 5 290 9.47715 290 15V390C290 395.523 285.523 400 280 400H9.00001C8.44772 400 8 399.552 8 399V6Z" fill="#3A8D75"/>
<line id="Book Back Side" x1="9.17157" y1="398" x2="2" y2="390.828" stroke="url(#paint0_linear_459_7758)" stroke-width="4" stroke-linecap="round"/>
<g id="page _5" filter="url(#filter0_dd_459_7758)">
<path d="M8 4C8 3.44772 8.44772 3 9 3H278C283.523 3 288 7.47715 288 13V388C288 393.523 283.523 398 278 398H9.00001C8.44772 398 8 397.552 8 397V4Z" fill="white"/>
</g>
<g id="page _4" filter="url(#filter1_dd_459_7758)">
<path d="M7 3C7 2.44772 7.44772 2 8 2H277C282.523 2 287 6.47715 287 12V387C287 392.523 282.523 397 277 397H8.00001C7.44772 397 7 396.552 7 396V3Z" fill="white"/>
</g>
<g id="page _3" filter="url(#filter2_dd_459_7758)">
<path d="M6 2C6 1.44772 6.44772 1 7 1H276C281.523 1 286 5.47715 286 11V386C286 391.523 281.523 396 276 396H7.00001C6.44772 396 6 395.552 6 395V2Z" fill="white"/>
</g>
<g id="page _2" filter="url(#filter3_dd_459_7758)">
<path d="M5 1C5 0.447716 5.44772 0 6 0H275C280.523 0 285 4.47715 285 10V385C285 390.523 280.523 395 275 395H6.00001C5.44772 395 5 394.552 5 394V1Z" fill="white"/>
</g>
<line id="Book Back Side_2" x1="10.2929" y1="399" x2="2" y2="390.707" stroke="url(#paint1_linear_459_7758)" stroke-linecap="round"/>
</g>
<defs>
<filter id="filter0_dd_459_7758" x="8" y="3" width="286" height="401" filterUnits="userSpaceOnUse" color-interpolation-filters="sRGB">
<feFlood flood-opacity="0" result="BackgroundImageFix"/>
<feColorMatrix in="SourceAlpha" type="matrix" values="0 0 0 0 0 0 0 0 0 0 0 0 0 0 0 0 0 0 127 0" result="hardAlpha"/>
<feMorphology radius="2" operator="erode" in="SourceAlpha" result="effect1_dropShadow_459_7758"/>
<feOffset dx="4" dy="4"/>
<feGaussianBlur stdDeviation="2"/>
<feColorMatrix type="matrix" values="0 0 0 0 0.0941176 0 0 0 0 0.152941 0 0 0 0 0.294118 0 0 0 0.08 0"/>
<feBlend mode="normal" in2="BackgroundImageFix" result="effect1_dropShadow_459_7758"/>
<feColorMatrix in="SourceAlpha" type="matrix" values="0 0 0 0 0 0 0 0 0 0 0 0 0 0 0 0 0 0 127 0" result="hardAlpha"/>
<feMorphology radius="1" operator="erode" in="SourceAlpha" result="effect2_dropShadow_459_7758"/>
<feOffset dx="2" dy="2"/>
<feGaussianBlur stdDeviation="1"/>
<feColorMatrix type="matrix" values="0 0 0 0 0.0941176 0 0 0 0 0.152941 0 0 0 0 0.294118 0 0 0 0.15 0"/>
<feBlend mode="normal" in2="effect1_dropShadow_459_7758" result="effect2_dropShadow_459_7758"/>
<feBlend mode="normal" in="SourceGraphic" in2="effect2_dropShadow_459_7758" result="shape"/>
</filter>
<filter id="filter1_dd_459_7758" x="7" y="2" width="286" height="401" filterUnits="userSpaceOnUse" color-interpolation-filters="sRGB">
<feFlood flood-opacity="0" result="BackgroundImageFix"/>
<feColorMatrix in="SourceAlpha" type="matrix" values="0 0 0 0 0 0 0 0 0 0 0 0 0 0 0 0 0 0 127 0" result="hardAlpha"/>
<feMorphology radius="2" operator="erode" in="SourceAlpha" result="effect1_dropShadow_459_7758"/>
<feOffset dx="4" dy="4"/>
<feGaussianBlur stdDeviation="2"/>
<feColorMatrix type="matrix" values="0 0 0 0 0.0941176 0 0 0 0 0.152941 0 0 0 0 0.294118 0 0 0 0.08 0"/>
<feBlend mode="normal" in2="BackgroundImageFix" result="effect1_dropShadow_459_7758"/>
<feColorMatrix in="SourceAlpha" type="matrix" values="0 0 0 0 0 0 0 0 0 0 0 0 0 0 0 0 0 0 127 0" result="hardAlpha"/>
<feMorphology radius="1" operator="erode" in="SourceAlpha" result="effect2_dropShadow_459_7758"/>
<feOffset dx="2" dy="2"/>
<feGaussianBlur stdDeviation="1"/>
<feColorMatrix type="matrix" values="0 0 0 0 0.0941176 0 0 0 0 0.152941 0 0 0 0 0.294118 0 0 0 0.15 0"/>
<feBlend mode="normal" in2="effect1_dropShadow_459_7758" result="effect2_dropShadow_459_7758"/>
<feBlend mode="normal" in="SourceGraphic" in2="effect2_dropShadow_459_7758" result="shape"/>
</filter>
<filter id="filter2_dd_459_7758" x="6" y="1" width="286" height="401" filterUnits="userSpaceOnUse" color-interpolation-filters="sRGB">
<feFlood flood-opacity="0" result="BackgroundImageFix"/>
<feColorMatrix in="SourceAlpha" type="matrix" values="0 0 0 0 0 0 0 0 0 0 0 0 0 0 0 0 0 0 127 0" result="hardAlpha"/>
<feMorphology radius="2" operator="erode" in="SourceAlpha" result="effect1_dropShadow_459_7758"/>
<feOffset dx="4" dy="4"/>
<feGaussianBlur stdDeviation="2"/>
<feColorMatrix type="matrix" values="0 0 0 0 0.0941176 0 0 0 0 0.152941 0 0 0 0 0.294118 0 0 0 0.08 0"/>
<feBlend mode="normal" in2="BackgroundImageFix" result="effect1_dropShadow_459_7758"/>
<feColorMatrix in="SourceAlpha" type="matrix" values="0 0 0 0 0 0 0 0 0 0 0 0 0 0 0 0 0 0 127 0" result="hardAlpha"/>
<feMorphology radius="1" operator="erode" in="SourceAlpha" result="effect2_dropShadow_459_7758"/>
<feOffset dx="2" dy="2"/>
<feGaussianBlur stdDeviation="1"/>
<feColorMatrix type="matrix" values="0 0 0 0 0.0941176 0 0 0 0 0.152941 0 0 0 0 0.294118 0 0 0 0.15 0"/>
<feBlend mode="normal" in2="effect1_dropShadow_459_7758" result="effect2_dropShadow_459_7758"/>
<feBlend mode="normal" in="SourceGraphic" in2="effect2_dropShadow_459_7758" result="shape"/>
</filter>
<filter id="filter3_dd_459_7758" x="5" y="0" width="286" height="401" filterUnits="userSpaceOnUse" color-interpolation-filters="sRGB">
<feFlood flood-opacity="0" result="BackgroundImageFix"/>
<feColorMatrix in="SourceAlpha" type="matrix" values="0 0 0 0 0 0 0 0 0 0 0 0 0 0 0 0 0 0 127 0" result="hardAlpha"/>
<feMorphology radius="2" operator="erode" in="SourceAlpha" result="effect1_dropShadow_459_7758"/>
<feOffset dx="4" dy="4"/>
<feGaussianBlur stdDeviation="2"/>
<feColorMatrix type="matrix" values="0 0 0 0 0.0941176 0 0 0 0 0.152941 0 0 0 0 0.294118 0 0 0 0.08 0"/>
<feBlend mode="normal" in2="BackgroundImageFix" result="effect1_dropShadow_459_7758"/>
<feColorMatrix in="SourceAlpha" type="matrix" values="0 0 0 0 0 0 0 0 0 0 0 0 0 0 0 0 0 0 127 0" result="hardAlpha"/>
<feMorphology radius="1" operator="erode" in="SourceAlpha" result="effect2_dropShadow_459_7758"/>
<feOffset dx="2" dy="2"/>
<feGaussianBlur stdDeviation="1"/>
<feColorMatrix type="matrix" values="0 0 0 0 0.0941176 0 0 0 0 0.152941 0 0 0 0 0.294118 0 0 0 0.15 0"/>
<feBlend mode="normal" in2="effect1_dropShadow_459_7758" result="effect2_dropShadow_459_7758"/>
<feBlend mode="normal" in="SourceGraphic" in2="effect2_dropShadow_459_7758" result="shape"/>
</filter>
<linearGradient id="paint0_linear_459_7758" x1="1.58945" y1="388.961" x2="10.5063" y2="397.85" gradientUnits="userSpaceOnUse">
<stop stop-color="#4AAF91"/>
<stop offset="0.526042" stop-color="#3A8D75"/>
<stop offset="1" stop-color="#3A8D75"/>
</linearGradient>
<linearGradient id="paint1_linear_459_7758" x1="1.56195" y1="390.933" x2="9.58592" y2="398.935" gradientUnits="userSpaceOnUse">
<stop stop-color="#4AAF91"/>
<stop offset="0.526042" stop-color="#3A8D75"/>
<stop offset="1" stop-color="#3A8D75"/>
</linearGradient>
</defs>
</svg>
