<svg width="304" height="415" viewBox="0 0 304 415" fill="none" xmlns="http://www.w3.org/2000/svg">
<g id="Book">
<path id="Back" d="M18 11C18 10.4477 18.4477 10 19 10H290C295.523 10 300 14.4772 300 20V395C300 400.523 295.523 405 290 405H19C18.4477 405 18 404.552 18 404V11Z" fill="#4AAF91"/>
<line id="Book_Back_Side" x1="19.1716" y1="403" x2="12" y2="395.828" stroke="#4AAF91" stroke-width="4" stroke-linecap="round"/>
<g id="Page-5" filter="url(#filter0_dd_466_7664)">
<path d="M18 9C18 8.44772 18.4477 8 19 8H288C293.523 8 298 12.4772 298 18V393C298 398.523 293.523 403 288 403H19C18.4477 403 18 402.552 18 402V9Z" fill="white"/>
</g>
<g id="Page-4" filter="url(#filter1_dd_466_7664)">
<path d="M17 8C17 7.44772 17.4477 7 18 7H287C292.523 7 297 11.4772 297 17V392C297 397.523 292.523 402 287 402H18C17.4477 402 17 401.552 17 401V8Z" fill="white"/>
</g>
<g id="Page-3" filter="url(#filter2_dd_466_7664)">
<path d="M16 7C16 6.44772 16.4477 6 17 6H286C291.523 6 296 10.4772 296 16V391C296 396.523 291.523 401 286 401H17C16.4477 401 16 400.552 16 400V7Z" fill="white"/>
</g>
<g id="Page-2" filter="url(#filter3_dd_466_7664)">
<path d="M15 6C15 5.44772 15.4477 5 16 5H285C290.523 5 295 9.47715 295 15V390C295 395.523 290.523 400 285 400H16C15.4477 400 15 399.552 15 399V6Z" fill="white"/>
</g>
<g id="Page-1" filter="url(#filter4_dd_466_7664)">
<path d="M14 5C14 4.44772 14.4477 4 15 4H284C289.523 4 294 8.47715 294 14V389C294 394.523 289.523 399 284 399H15C14.4477 399 14 398.552 14 398V5Z" fill="white"/>
</g>
<line id="Book_Back_Side_2" x1="20.2929" y1="404" x2="12" y2="395.707" stroke="#4AAF91" stroke-linecap="round"/>
<g id="Front" filter="url(#filter5_dd_466_7664)">
<path d="M10 6C10 3.79086 11.7909 2 14 2H282C287.523 2 292 6.47715 292 12V387C292 392.523 287.523 397 282 397H11C10.4477 397 10 396.552 10 396V6Z" fill="#8FD2BE"/>
</g>
</g>
<defs>
<filter id="filter0_dd_466_7664" x="18" y="8" width="286" height="401" filterUnits="userSpaceOnUse" color-interpolation-filters="sRGB">
<feFlood flood-opacity="0" result="BackgroundImageFix"/>
<feColorMatrix in="SourceAlpha" type="matrix" values="0 0 0 0 0 0 0 0 0 0 0 0 0 0 0 0 0 0 127 0" result="hardAlpha"/>
<feMorphology radius="2" operator="erode" in="SourceAlpha" result="effect1_dropShadow_466_7664"/>
<feOffset dx="4" dy="4"/>
<feGaussianBlur stdDeviation="2"/>
<feColorMatrix type="matrix" values="0 0 0 0 0.0941176 0 0 0 0 0.152941 0 0 0 0 0.294118 0 0 0 0.08 0"/>
<feBlend mode="normal" in2="BackgroundImageFix" result="effect1_dropShadow_466_7664"/>
<feColorMatrix in="SourceAlpha" type="matrix" values="0 0 0 0 0 0 0 0 0 0 0 0 0 0 0 0 0 0 127 0" result="hardAlpha"/>
<feMorphology radius="1" operator="erode" in="SourceAlpha" result="effect2_dropShadow_466_7664"/>
<feOffset dx="2" dy="2"/>
<feGaussianBlur stdDeviation="1"/>
<feColorMatrix type="matrix" values="0 0 0 0 0.0941176 0 0 0 0 0.152941 0 0 0 0 0.294118 0 0 0 0.15 0"/>
<feBlend mode="normal" in2="effect1_dropShadow_466_7664" result="effect2_dropShadow_466_7664"/>
<feBlend mode="normal" in="SourceGraphic" in2="effect2_dropShadow_466_7664" result="shape"/>
</filter>
<filter id="filter1_dd_466_7664" x="17" y="7" width="286" height="401" filterUnits="userSpaceOnUse" color-interpolation-filters="sRGB">
<feFlood flood-opacity="0" result="BackgroundImageFix"/>
<feColorMatrix in="SourceAlpha" type="matrix" values="0 0 0 0 0 0 0 0 0 0 0 0 0 0 0 0 0 0 127 0" result="hardAlpha"/>
<feMorphology radius="2" operator="erode" in="SourceAlpha" result="effect1_dropShadow_466_7664"/>
<feOffset dx="4" dy="4"/>
<feGaussianBlur stdDeviation="2"/>
<feColorMatrix type="matrix" values="0 0 0 0 0.0941176 0 0 0 0 0.152941 0 0 0 0 0.294118 0 0 0 0.08 0"/>
<feBlend mode="normal" in2="BackgroundImageFix" result="effect1_dropShadow_466_7664"/>
<feColorMatrix in="SourceAlpha" type="matrix" values="0 0 0 0 0 0 0 0 0 0 0 0 0 0 0 0 0 0 127 0" result="hardAlpha"/>
<feMorphology radius="1" operator="erode" in="SourceAlpha" result="effect2_dropShadow_466_7664"/>
<feOffset dx="2" dy="2"/>
<feGaussianBlur stdDeviation="1"/>
<feColorMatrix type="matrix" values="0 0 0 0 0.0941176 0 0 0 0 0.152941 0 0 0 0 0.294118 0 0 0 0.15 0"/>
<feBlend mode="normal" in2="effect1_dropShadow_466_7664" result="effect2_dropShadow_466_7664"/>
<feBlend mode="normal" in="SourceGraphic" in2="effect2_dropShadow_466_7664" result="shape"/>
</filter>
<filter id="filter2_dd_466_7664" x="16" y="6" width="286" height="401" filterUnits="userSpaceOnUse" color-interpolation-filters="sRGB">
<feFlood flood-opacity="0" result="BackgroundImageFix"/>
<feColorMatrix in="SourceAlpha" type="matrix" values="0 0 0 0 0 0 0 0 0 0 0 0 0 0 0 0 0 0 127 0" result="hardAlpha"/>
<feMorphology radius="2" operator="erode" in="SourceAlpha" result="effect1_dropShadow_466_7664"/>
<feOffset dx="4" dy="4"/>
<feGaussianBlur stdDeviation="2"/>
<feColorMatrix type="matrix" values="0 0 0 0 0.0941176 0 0 0 0 0.152941 0 0 0 0 0.294118 0 0 0 0.08 0"/>
<feBlend mode="normal" in2="BackgroundImageFix" result="effect1_dropShadow_466_7664"/>
<feColorMatrix in="SourceAlpha" type="matrix" values="0 0 0 0 0 0 0 0 0 0 0 0 0 0 0 0 0 0 127 0" result="hardAlpha"/>
<feMorphology radius="1" operator="erode" in="SourceAlpha" result="effect2_dropShadow_466_7664"/>
<feOffset dx="2" dy="2"/>
<feGaussianBlur stdDeviation="1"/>
<feColorMatrix type="matrix" values="0 0 0 0 0.0941176 0 0 0 0 0.152941 0 0 0 0 0.294118 0 0 0 0.15 0"/>
<feBlend mode="normal" in2="effect1_dropShadow_466_7664" result="effect2_dropShadow_466_7664"/>
<feBlend mode="normal" in="SourceGraphic" in2="effect2_dropShadow_466_7664" result="shape"/>
</filter>
<filter id="filter3_dd_466_7664" x="15" y="5" width="286" height="401" filterUnits="userSpaceOnUse" color-interpolation-filters="sRGB">
<feFlood flood-opacity="0" result="BackgroundImageFix"/>
<feColorMatrix in="SourceAlpha" type="matrix" values="0 0 0 0 0 0 0 0 0 0 0 0 0 0 0 0 0 0 127 0" result="hardAlpha"/>
<feMorphology radius="2" operator="erode" in="SourceAlpha" result="effect1_dropShadow_466_7664"/>
<feOffset dx="4" dy="4"/>
<feGaussianBlur stdDeviation="2"/>
<feColorMatrix type="matrix" values="0 0 0 0 0.0941176 0 0 0 0 0.152941 0 0 0 0 0.294118 0 0 0 0.08 0"/>
<feBlend mode="normal" in2="BackgroundImageFix" result="effect1_dropShadow_466_7664"/>
<feColorMatrix in="SourceAlpha" type="matrix" values="0 0 0 0 0 0 0 0 0 0 0 0 0 0 0 0 0 0 127 0" result="hardAlpha"/>
<feMorphology radius="1" operator="erode" in="SourceAlpha" result="effect2_dropShadow_466_7664"/>
<feOffset dx="2" dy="2"/>
<feGaussianBlur stdDeviation="1"/>
<feColorMatrix type="matrix" values="0 0 0 0 0.0941176 0 0 0 0 0.152941 0 0 0 0 0.294118 0 0 0 0.15 0"/>
<feBlend mode="normal" in2="effect1_dropShadow_466_7664" result="effect2_dropShadow_466_7664"/>
<feBlend mode="normal" in="SourceGraphic" in2="effect2_dropShadow_466_7664" result="shape"/>
</filter>
<filter id="filter4_dd_466_7664" x="14" y="4" width="286" height="401" filterUnits="userSpaceOnUse" color-interpolation-filters="sRGB">
<feFlood flood-opacity="0" result="BackgroundImageFix"/>
<feColorMatrix in="SourceAlpha" type="matrix" values="0 0 0 0 0 0 0 0 0 0 0 0 0 0 0 0 0 0 127 0" result="hardAlpha"/>
<feMorphology radius="2" operator="erode" in="SourceAlpha" result="effect1_dropShadow_466_7664"/>
<feOffset dx="4" dy="4"/>
<feGaussianBlur stdDeviation="2"/>
<feColorMatrix type="matrix" values="0 0 0 0 0.0941176 0 0 0 0 0.152941 0 0 0 0 0.294118 0 0 0 0.08 0"/>
<feBlend mode="normal" in2="BackgroundImageFix" result="effect1_dropShadow_466_7664"/>
<feColorMatrix in="SourceAlpha" type="matrix" values="0 0 0 0 0 0 0 0 0 0 0 0 0 0 0 0 0 0 127 0" result="hardAlpha"/>
<feMorphology radius="1" operator="erode" in="SourceAlpha" result="effect2_dropShadow_466_7664"/>
<feOffset dx="2" dy="2"/>
<feGaussianBlur stdDeviation="1"/>
<feColorMatrix type="matrix" values="0 0 0 0 0.0941176 0 0 0 0 0.152941 0 0 0 0 0.294118 0 0 0 0.15 0"/>
<feBlend mode="normal" in2="effect1_dropShadow_466_7664" result="effect2_dropShadow_466_7664"/>
<feBlend mode="normal" in="SourceGraphic" in2="effect2_dropShadow_466_7664" result="shape"/>
</filter>
<filter id="filter5_dd_466_7664" x="0" y="0" width="302" height="415" filterUnits="userSpaceOnUse" color-interpolation-filters="sRGB">
<feFlood flood-opacity="0" result="BackgroundImageFix"/>
<feColorMatrix in="SourceAlpha" type="matrix" values="0 0 0 0 0 0 0 0 0 0 0 0 0 0 0 0 0 0 127 0" result="hardAlpha"/>
<feMorphology radius="6" operator="erode" in="SourceAlpha" result="effect1_dropShadow_466_7664"/>
<feOffset dy="8"/>
<feGaussianBlur stdDeviation="8"/>
<feColorMatrix type="matrix" values="0 0 0 0 0.0941176 0 0 0 0 0.152941 0 0 0 0 0.294118 0 0 0 0.08 0"/>
<feBlend mode="normal" in2="BackgroundImageFix" result="effect1_dropShadow_466_7664"/>
<feColorMatrix in="SourceAlpha" type="matrix" values="0 0 0 0 0 0 0 0 0 0 0 0 0 0 0 0 0 0 127 0" result="hardAlpha"/>
<feMorphology radius="6" operator="erode" in="SourceAlpha" result="effect2_dropShadow_466_7664"/>
<feOffset dy="6"/>
<feGaussianBlur stdDeviation="4"/>
<feColorMatrix type="matrix" values="0 0 0 0 0.0941176 0 0 0 0 0.152941 0 0 0 0 0.294118 0 0 0 0.12 0"/>
<feBlend mode="normal" in2="effect1_dropShadow_466_7664" result="effect2_dropShadow_466_7664"/>
<feBlend mode="normal" in="SourceGraphic" in2="effect2_dropShadow_466_7664" result="shape"/>
</filter>
</defs>
</svg>
