<svg width="45" height="61" viewBox="0 0 45 61" fill="none" xmlns="http://www.w3.org/2000/svg">
<g id="book_cover">
<rect id="cover" x="1.03702" y="1.83435" width="42" height="58" rx="2" fill="#4AAF91" stroke="#4AAF91" stroke-width="2"/>
<path id="title" d="M14.037 19.3059C12.9324 19.3059 12.037 20.2013 12.037 21.3059C12.037 22.4104 12.9324 23.3059 14.037 23.3059V19.3059ZM30.037 23.3059C31.1416 23.3059 32.037 22.4104 32.037 21.3059C32.037 20.2013 31.1416 19.3059 30.037 19.3059V23.3059ZM9.03702 27.3059C7.93245 27.3059 7.03702 28.2013 7.03702 29.3059C7.03702 30.4104 7.93245 31.3059 9.03702 31.3059V27.3059ZM35.037 31.3059C36.1416 31.3059 37.037 30.4104 37.037 29.3059C37.037 28.2013 36.1416 27.3059 35.037 27.3059V31.3059ZM14.037 23.3059H30.037V19.3059H14.037V23.3059ZM9.03702 31.3059H35.037V27.3059H9.03702V31.3059Z" fill="white"/>
</g>
</svg>
