<svg width="150" height="209" viewBox="0 0 150 209" fill="none" xmlns="http://www.w3.org/2000/svg">
<g id="Person">
<path fill-rule="evenodd" clip-rule="evenodd" d="M70.9055 75.8998C75.5991 72.3316 87.3827 70.7271 92.3922 74.1627C97.34 77.6127 97.8794 83.1919 100.185 88.3244C102.36 87.3003 105.953 88.767 106.584 90.7821C107.366 91.7326 107.401 94.4029 107.94 95.6806C131.412 99.4105 134.975 117.679 137.8 138.419C141.538 159.464 150.022 180.464 146.339 202.12C146.819 202.813 147.197 203.487 147.547 204.288C148.385 205.712 147.305 207.727 145.614 207.649C143.426 207.457 141.259 207.195 139.06 207.114C132.964 206.902 126.862 206.927 120.764 207.005L119.933 207.016C89.1997 207.398 58.4684 208.15 27.734 208.35C26.619 208.351 26.0731 207.353 26.222 206.368C26.5219 204.386 26.8001 202.402 27.0904 200.418C19.8209 202.335 12.0929 202.818 4.84393 200.62C4.33682 200.104 6.02546 200.384 6.29337 200.305C-0.377911 195.754 1.61438 186.167 2.20534 179.262C5.88 155.6 7.17543 129.42 21.3731 109.229C27.5152 100.989 36.5201 94.4649 46.8673 92.997L47.1544 92.9578C50.1799 92.555 53.5519 92.4253 56.1972 90.7821C59.1723 88.411 60.4402 84.0297 63.5702 83.9887C64.6037 83.9752 66.0097 85.2805 67.5227 86.1668C67.6357 84.2172 68.6881 82.5719 68.9204 81.0602L68.9392 80.9309C69.1817 79.1686 68.8496 77.583 70.9055 75.8998ZM121.348 139.044C114.752 134.469 97.7125 136.768 97.3224 137.024C96.4635 137.588 96.0937 137.638 95.6292 138.37C95.1706 138.431 94.7123 138.494 94.2545 138.559C93.3359 138.858 94.0166 139.986 95.0776 139.584C94.4394 142.331 96.3175 144.285 97.0651 147.002C97.3079 147.884 97.0739 149.47 97.0651 150.371C97.1376 151.52 98.4101 152.877 98.198 154.03C97.444 158.128 93.3526 162.126 95.0776 166.1C96.2203 168.345 99.6573 169.489 101.942 170.252C106.677 172.066 114.926 170.184 117.677 166.1C119.144 163.922 120.844 158.427 121.718 156.722L121.912 154.018C122.391 147.297 122.816 140.062 121.348 139.044Z" fill="white"/>
<path fill-rule="evenodd" clip-rule="evenodd" d="M62.4209 83.5924C62.8763 83.1898 63.5502 83.6957 63.2608 84.2395C62.6105 85.4618 61.9435 86.6199 61.0707 87.7004C60.5416 88.3555 59.9748 88.975 59.4004 89.5878C60.8745 90.8609 62.1388 92.4416 63.3327 93.923C64.8593 95.8176 66.3027 97.7925 68.0164 99.5262C69.7065 101.236 71.5753 102.431 73.8349 103.228L74.2913 103.386C76.5612 104.182 78.9873 105.256 80.2668 107.402C80.5191 107.825 80.0111 108.348 79.584 108.084C77.3607 106.71 74.7483 106.433 72.3282 105.525C69.9904 104.648 67.9525 103.298 66.1519 101.575C64.3543 99.8546 62.845 97.8975 61.2706 95.9818C59.7137 94.0876 58.0374 92.4697 56.1959 90.867C53.3542 92.7756 50.1104 93.606 46.812 94.4217L46.452 94.5107C43.1496 95.3269 39.8649 96.2749 36.7668 97.6963C34.0352 98.9493 31.3485 100.446 29.1235 102.485C26.7616 104.649 24.9233 107.413 23.2407 110.116C19.4771 116.163 16.8311 122.787 14.5017 129.493C12.0789 136.467 10.0524 143.581 8.41639 150.78C7.58433 154.442 6.90857 158.13 6.35317 161.843C6.08583 163.632 5.84835 165.424 5.63976 167.22C5.41711 169.138 5.36596 171.112 4.77652 172.956C4.52383 173.747 3.92716 174.075 3.32993 174.047L3.20863 175.561C3.04777 177.581 2.89782 179.601 2.84716 181.632C2.76314 185.011 2.80124 188.38 3.04466 191.751L3.07914 192.211C3.27042 194.671 3.69785 197.436 5.55116 199.237C7.47044 201.103 10.422 201.69 13.0089 201.724C19.0339 201.802 24.8335 198.96 30.1651 196.467C35.656 193.899 40.9968 191.049 46.2097 187.958C48.8645 186.384 51.4905 184.757 54.0831 183.083C55.3553 182.261 56.6186 181.426 57.8724 180.576C58.5905 180.09 59.2711 179.557 60.0022 179.125C59.6439 178.792 59.484 178.269 59.7841 177.812C57.6707 175.98 56.7911 172.712 56.6882 170.068C56.6051 167.933 56.9198 165.805 57.1681 163.69C57.2934 162.624 57.4482 161.56 57.6089 160.498C57.6724 160.079 57.7209 159.63 57.795 159.188C52.0883 162.318 46.2217 165.107 40.1998 167.584C37.113 168.853 33.9867 169.995 30.8173 171.041L30.1749 171.252C27.1718 172.233 24.0969 173.16 20.9923 173.722C20.8263 173.752 20.6915 173.507 20.8687 173.429C23.8942 172.096 27.0245 170.972 30.0955 169.745L30.6001 169.539C30.5421 169.536 30.482 169.528 30.4193 169.513C28.6183 169.079 26.8313 168.41 25.0649 167.847C23.4255 167.325 21.5836 166.997 20.0513 166.208C19.9334 166.147 19.9994 165.983 20.1142 165.976C21.8365 165.856 23.7062 166.357 25.3948 166.652L26.0292 166.763C27.0919 166.95 28.1782 167.151 29.2357 167.414C29.2739 167.06 29.4718 166.705 29.7534 166.497C32.8521 164.206 32.5375 159.579 32.8689 156.166L33.1146 153.633C33.5469 149.2 34.0042 144.767 34.699 140.367C34.7361 140.132 35.1002 140.199 35.1017 140.421C35.1375 145.876 34.7251 151.305 34.5184 156.751L34.4863 157.644C34.3721 161.005 34.2825 164.494 32.1625 167.08C32.4589 166.907 32.8597 166.907 33.0999 167.192C33.395 167.543 33.5654 167.936 33.56 168.323C35.4757 167.521 37.383 166.698 39.281 165.859C45.3832 163.16 51.3574 160.14 57.1736 156.872C57.7996 156.52 58.3945 156.796 58.7041 157.26L58.7487 157.254C58.7562 157.253 58.7638 157.252 58.7716 157.252L58.8159 157.25C58.8176 157.25 58.8193 157.25 58.8208 157.25C59.6396 156.801 60.7549 157.121 61.4575 157.776C61.4782 157.795 61.4959 157.817 61.5144 157.838C62.4038 157.439 63.2344 156.901 63.9881 156.219C65.5305 154.823 66.837 153.098 67.9759 151.367C70.0733 148.18 71.855 144.636 74.6883 142.012C76.9903 139.881 79.8443 138.554 82.8384 137.72C82.8259 137.633 82.8594 137.54 82.9198 137.478C83.0737 137.321 83.1834 137.266 83.3821 137.362C83.3978 137.37 83.4073 137.38 83.4138 137.392L83.706 136.893C83.8655 136.623 84.0292 136.35 84.086 136.279C84.4259 135.852 84.7758 135.428 85.131 135.012C85.7331 134.31 86.4194 133.616 87.214 133.128C88.9538 132.061 90.7827 132.665 92.5714 133.248C93.6521 133.601 94.7293 133.965 95.8081 134.323L95.9194 134.359C96.7239 134.617 97.6652 134.843 98.025 135.694C98.1674 136.03 98.1895 136.38 98.1231 136.719C105.764 134.779 114.25 135.67 121.706 137.947C121.992 138.035 122.278 138.27 122.338 138.578C123.193 142.952 123.573 147.437 123.187 151.886C122.853 155.725 122.001 159.488 120.395 163.004L120.304 163.202C118.794 166.46 116.402 170.476 112.749 171.497C110.543 172.114 108.104 171.75 105.854 171.637C103.667 171.527 101.433 171.511 99.2668 171.168C97.338 170.863 95.648 169.999 94.4561 168.434C93.4278 167.083 92.8862 165.451 92.4426 163.827C92.2396 163.891 92.0378 163.96 91.8393 164.037C91.0014 164.364 90.2914 164.891 89.6495 165.512C88.294 166.822 87.2425 168.414 85.8242 169.665C84.5404 170.797 83.0775 171.677 81.5082 172.354C78.2566 173.757 74.7683 174.317 71.3288 175.061L71.0889 175.113C68.4995 175.68 65.8566 176.376 63.5711 177.722C63.5264 178.118 63.3456 178.491 63.0558 178.735C63.4589 179.113 63.6297 179.712 63.2754 180.273C62.286 181.841 60.5816 182.733 59.0515 183.735L58.952 183.801C57.4469 184.797 55.9286 185.774 54.3979 186.73C51.2863 188.675 48.1096 190.513 44.8881 192.27C39.7065 195.096 34.4138 197.762 29.0252 200.18C29.3486 201.768 29.2304 203.406 29.4735 205.005L29.5108 205.233C29.6146 205.827 29.4744 206.323 29.0649 206.711L29.0216 206.751L29.0223 206.746L28.9839 206.781L28.9711 206.791L28.9754 206.788C28.9282 206.831 28.8795 206.871 28.8298 206.906L28.7666 206.946C28.3722 207.186 27.8644 207.183 27.4606 206.972L27.4145 206.946L27.3369 206.902C26.8034 206.596 26.4355 205.836 26.6568 205.233C27.2008 203.751 27.4063 202.169 27.9087 200.677L27.5101 200.855L26.9849 201.084C21.3038 203.536 14.9934 205.602 8.80351 203.93C6.06853 203.191 3.51228 201.628 2.14383 199.08C0.797256 196.573 0.606925 193.663 0.535432 190.874C0.447207 187.432 0.632024 183.938 1.08665 180.526C1.39183 178.236 1.76089 175.902 2.33017 173.635C2.03735 173.377 1.82211 173.007 1.76526 172.549C1.49659 170.384 1.96681 168.133 2.25469 165.98C2.5359 163.877 2.84659 161.778 3.19797 159.686C3.90739 155.46 4.73165 151.244 5.69129 147.068C7.39914 139.637 9.65439 132.337 12.3696 125.212L12.6074 124.591C15.1164 118.078 18.0214 111.705 22.0666 105.983C24.0017 103.246 26.0472 100.764 28.7814 98.7918C31.343 96.9437 34.2324 95.613 37.2142 94.5959C40.1992 93.5781 43.2673 92.896 46.3896 92.4718C49.5606 92.0409 52.9076 91.7766 55.8656 90.4782C55.4914 89.8086 55.8126 88.9044 56.4423 88.4891C58.5617 87.0912 60.5214 85.2727 62.4209 83.5924ZM130.264 144.378C130.353 144.243 130.564 144.328 130.525 144.488C129.494 148.704 128.527 152.928 127.895 157.224C126.754 164.978 126.964 172.834 127.057 180.646L127.062 181.05C127.11 185.257 127.176 189.465 127.316 193.671C127.386 195.797 127.525 197.943 127.45 200.07C127.408 201.224 127.1 202.315 126.991 203.455C126.896 204.452 126.981 205.464 127.028 206.462C127.06 207.126 126.079 207.097 126.013 206.462L125.927 205.64C125.816 204.6 125.679 203.567 125.338 202.571C124.927 201.374 124.73 200.198 124.588 198.941C124.37 197.015 124.273 195.069 124.189 193.13L124.131 191.788C123.78 183.682 123.792 175.537 124.361 167.44L124.403 166.861C124.966 159.207 125.944 150.936 130.264 144.378ZM108.293 96.1349C108.023 96.0244 108.118 95.618 108.416 95.6888L108.958 95.818C112.931 96.768 116.832 97.7973 120.54 99.565C124.251 101.334 127.392 103.974 129.888 107.222C134.741 113.533 136.757 121.204 138.349 128.868C140.118 137.383 141.729 145.93 143.513 154.443L143.845 156.029C145.496 163.958 147.055 171.891 148.203 179.914L148.286 180.496C149.444 188.746 150.141 197.282 148.877 205.553C148.627 207.19 145.899 206.782 146.006 205.165C146.314 200.491 146.535 195.842 146.321 191.157C146.108 186.472 145.668 181.807 145.012 177.163C144.459 173.254 143.636 169.394 142.908 165.517L142.794 164.904C142.184 161.606 141.555 158.312 140.927 155.017L139.99 150.084C138.584 142.697 137.152 135.304 135.533 127.964L135.437 127.532C133.852 120.47 131.516 113.073 126.764 107.465C121.941 101.774 115.037 98.9077 108.293 96.1349ZM90.7679 171.039C90.8839 170.781 91.2896 170.809 91.4144 171.039C91.9031 171.939 91.9574 173.088 92.0498 174.105L92.0595 174.209C92.177 175.449 92.281 176.694 92.3447 177.938C92.4654 180.299 92.5232 182.657 92.5158 185.021C92.5082 187.444 92.4594 189.864 92.3285 192.284L92.293 192.932C92.1736 195.034 91.9733 197.379 90.9727 199.217C90.6089 199.886 89.6196 199.689 89.409 199.014C88.7188 196.801 89.0732 194.178 89.2502 191.911L89.3876 190.143C89.5238 188.375 89.6536 186.606 89.7565 184.835C89.8976 182.413 90.014 179.988 90.126 177.565C90.1624 176.778 90.2017 175.99 90.2433 175.203L90.3072 174.023C90.3617 173.035 90.3572 171.952 90.7679 171.039ZM13.1623 174.175L13.4679 173.88C14.4058 172.964 15.5911 171.552 16.9777 171.64C17.5307 171.675 17.883 172.133 17.7683 172.676C17.5234 173.837 16.3371 174.44 15.4832 175.148C14.5477 175.925 13.666 176.754 12.7861 177.592C12.0054 178.335 11.2546 179.099 10.5218 179.886L10.2479 180.183C9.98522 180.469 8.11478 182.158 8.31702 182.596L8.32803 182.616C8.38431 182.7 8.29057 182.815 8.19721 182.786C7.38949 182.531 7.43988 181.84 7.74525 181.14C8.33202 179.794 9.35954 178.55 10.2568 177.401C11.1517 176.254 12.1202 175.187 13.1623 174.175ZM93.6947 140.433C93.0701 138.959 90.7692 138.99 89.463 139.078C86.1735 139.3 82.6145 140.131 79.6876 141.666C76.6533 143.257 74.6093 145.807 72.7804 148.626L72.6948 148.759C70.9123 151.525 69.1955 154.8 66.4042 156.702C64.9825 157.671 63.3224 158.556 61.5975 158.939C61.479 159.147 61.2871 159.311 61.0356 159.371L60.9186 159.398C60.4274 159.506 59.6641 159.626 59.0049 159.554C59.0093 159.876 59.0058 160.196 59.014 160.501C59.0372 161.375 59.0471 162.253 59.0471 163.127C59.0475 164.96 58.9488 166.797 59.0254 168.629C59.0933 170.25 59.3226 171.944 60.1022 173.393C60.6739 174.456 61.4286 175.159 62.3396 175.831C64.5806 174.467 67.1146 173.636 69.6864 173.011C72.7967 172.255 75.9814 171.751 79.021 170.726C80.484 170.233 81.8904 169.588 83.1647 168.711C84.5172 167.78 85.5503 166.52 86.6131 165.288L86.7793 165.096C87.864 163.854 89.0476 162.666 90.5806 161.993C91.9008 161.413 93.6407 161.309 94.7951 160.412C95.3986 159.942 95.4492 159.261 95.5127 158.563C94.7734 158.668 93.9908 158.499 93.254 158.413L92.8723 158.368C92.1755 158.286 91.4948 158.195 90.809 158.018C90.6816 157.985 90.6816 157.793 90.809 157.761C91.6195 157.552 92.4229 157.463 93.254 157.365L93.4492 157.341C94.2011 157.243 94.9914 157.094 95.7289 157.259C95.8612 156.757 96.0523 156.277 96.3204 155.796C96.6967 155.121 97.4088 154.355 97.505 153.567C97.5337 153.331 97.4787 153.053 97.3675 152.845L97.3292 152.774C97.2824 152.69 97.227 152.606 97.146 152.554C97.1371 152.564 97.118 152.576 97.0768 152.589C96.5092 152.767 96.0141 152.49 95.7513 152.063C94.6357 152.201 93.4183 152.154 92.3721 152.2L91.3144 152.251C90.1842 152.303 89.0026 152.326 87.9405 152.098C87.7922 152.066 87.7473 151.82 87.8958 151.756C89.2015 151.199 90.7854 151.021 92.1833 150.807C92.964 150.687 93.7505 150.596 94.5335 150.491C95.0548 150.42 95.6081 150.304 96.1483 150.277C97.5027 148.593 96.7729 145.938 94.8881 145.213C94.2015 145.515 93.5841 145.339 92.834 145.275C92.0852 145.211 91.3345 145.167 90.5827 145.171C89.0762 145.177 87.4798 145.573 85.988 145.403C85.7453 145.375 85.5198 145.052 85.7611 144.856C86.9031 143.925 88.5397 143.622 89.9893 143.424L90.2897 143.384C90.7757 143.32 91.3667 143.227 91.9797 143.172C92.1183 142.902 92.367 142.698 92.7406 142.647C92.8517 142.632 92.9633 142.623 93.0747 142.614L93.073 142.603C93.9841 142.559 93.9446 141.023 93.6947 140.433ZM31.3154 169.177C31.2993 169.202 31.2817 169.226 31.263 169.248L31.234 169.282L31.3839 169.221L31.3154 169.177ZM109.595 137.14C105.76 136.728 101.919 136.815 98.0724 136.926C97.7647 137.93 96.6938 138.786 95.6562 138.819C96.4689 140.053 96.5528 141.725 95.9829 143.034C97.1928 143.515 98.2351 144.379 98.8679 145.609C99.7454 147.314 99.6306 149.211 98.7633 150.787C99.5036 151.456 99.9403 152.543 99.8966 153.567C99.8477 154.708 99.1661 155.684 98.5996 156.629C97.9876 157.651 97.967 158.552 97.779 159.697C97.5038 161.372 96.3717 162.389 94.9151 163.023L94.9925 163.328C95.3681 164.787 95.8353 166.327 96.9087 167.394C98.2895 168.767 100.432 168.754 102.256 168.841L102.344 168.845C104.014 168.929 105.684 169.026 107.354 169.121L108.607 169.191C110.529 169.296 112.376 169.309 113.945 168.04C116.508 165.969 118.265 162.541 119.377 159.506C121.71 153.136 121.738 146.146 120.667 139.512C117.074 138.356 113.347 137.542 109.595 137.14ZM77.7007 147.708L77.7289 147.71C78.5186 147.8 79.061 148.438 79.2542 149.195C79.5349 150.296 79.3972 151.291 80.0724 152.284C80.767 153.306 81.194 154.124 81.295 155.386C81.3364 155.905 81.3174 156.423 81.4332 156.932L81.5172 157.288C81.6064 157.668 81.6793 158.034 81.635 158.441C81.5945 158.813 81.4131 159.103 81.0394 159.222C79.822 159.611 78.8819 158.715 78.5674 157.583C78.2957 156.604 78.6585 155.438 78.2752 154.52C78.0628 154.01 77.6711 153.584 77.4498 153.072C77.2306 152.563 77.1205 152.032 77.0853 151.48C77.0185 150.435 77.9441 149.18 77.4277 148.233C77.3178 148.031 77.4423 147.701 77.7007 147.708ZM61.5287 136.926C62.3532 136.759 63.2885 136.375 64.1015 136.694C64.5194 136.858 64.7259 137.367 64.3728 137.72C63.7598 138.334 62.8688 138.368 62.0431 138.513L61.9704 138.526C60.994 138.706 60.0159 138.877 59.0365 139.039C57.1939 139.344 55.3469 139.613 53.4934 139.842C51.5897 140.077 49.6807 140.287 47.769 140.444L47.0289 140.505C45.4141 140.634 43.7338 140.731 42.1494 140.484C41.9191 140.448 41.9562 140.114 42.1494 140.055C43.8852 139.53 45.7892 139.39 47.5838 139.168C49.4917 138.932 51.3963 138.682 53.296 138.386C55.1926 138.09 57.0868 137.773 58.974 137.422C59.8269 137.264 60.6786 137.098 61.5287 136.926ZM91.2771 135.242C90.5536 134.986 89.7577 134.607 88.9738 134.734C87.6218 134.953 86.4186 136.268 85.3485 137.134L85.8858 137.029C88.6351 136.502 92.276 135.934 94.5839 137.679C94.5898 137.669 94.5943 137.659 94.601 137.649C94.7873 137.366 95.0031 137.146 95.2387 136.904C95.2612 136.883 95.283 136.861 95.3044 136.839L95.4315 136.704L95.1408 136.603C94.5182 136.383 93.7805 136.1 93.6639 136.058L93.6558 136.055C92.862 135.787 92.0672 135.522 91.2771 135.242ZM68.688 77.7112C68.5749 76.2585 70.8397 76.2704 70.9519 77.7112C71.1966 80.8566 70.4875 83.9722 68.9615 86.7297C68.9502 86.7499 68.9379 86.7677 68.9261 86.7867C69.8806 87.2825 70.8459 87.7582 71.8328 88.1834C73.0951 88.7274 74.3812 89.2229 75.6904 89.6432C76.8745 90.0236 78.3335 90.1737 79.3291 90.9653C81.4284 92.6342 80.6397 96.0977 80.2359 98.3428L80.1729 98.6972C79.9718 99.8525 79.8263 101.038 80.3142 102.146C80.8352 103.331 81.8888 104.209 82.8286 105.057L83.0184 105.228C83.8511 105.986 84.8025 106.906 85.4132 107.932C85.9707 106.782 86.7307 105.841 87.5342 104.783C88.1075 104.027 87.6995 103.778 87.2876 103.04C86.8912 102.33 86.6976 101.573 86.8216 100.762C87.0503 99.2657 88.2484 98.1847 89.441 97.3724C90.8493 96.4136 92.4212 95.7033 93.8771 94.8113C96.8688 92.9787 99.7823 90.8835 102.407 88.5564C102.48 88.4921 102.605 88.5763 102.547 88.6642C100.474 91.8128 98.0424 94.5336 95.0543 96.843C93.8427 97.7794 92.5699 98.5562 91.2886 99.3727L90.9202 99.6087C90.4058 99.9414 89.7641 100.386 89.5315 100.952C89.2974 101.522 89.7965 101.952 90.0652 102.424C90.9183 103.923 90.5067 105.321 89.4953 106.592L89.4482 106.65C88.4431 107.887 87.6814 109.037 87.3171 110.617C86.5343 114.01 87.6246 117.545 88.7659 120.73L88.811 120.856C89.4284 122.573 90.0846 124.278 90.621 126.022L90.7686 126.505C91.2546 128.11 91.6525 129.693 91.1074 131.344C90.922 131.905 90.1551 132.038 89.8366 131.509C88.7131 129.646 88.433 127.405 87.7287 125.356C87.0423 123.36 86.2542 121.4 85.5912 119.396C84.7374 116.815 84.1661 114.037 84.4762 111.33C84.4671 111.315 84.457 111.3 84.4494 111.283L84.2321 110.808C83.6394 109.523 83.0671 108.401 81.9893 107.377C80.8652 106.308 79.6451 105.362 78.7606 104.069C76.8393 101.259 78.0275 98.1339 78.2596 95.0619L78.2861 94.6851C78.3283 94.0473 78.3514 93.1804 77.934 92.739C77.4646 92.242 76.3636 92.1152 75.7407 91.8952C74.131 91.3265 72.5447 90.6638 71.0338 89.8681C69.5956 89.1107 68.2024 88.274 66.9053 87.2937L66.2478 86.7999C65.2105 86.0185 64.1348 85.1653 63.4396 84.1016C63.3593 83.9792 63.4957 83.7816 63.6409 83.8402C64.8016 84.3104 65.862 85.0583 66.9479 85.7091C66.9648 85.6694 66.9844 85.6293 67.0066 85.5891C68.3502 83.1616 68.9027 80.4722 68.688 77.7112ZM105.762 94.3427C106.225 93.0767 108.332 93.1745 108.248 94.6787C108.184 95.8342 107.692 96.8772 107.243 97.9265L107.195 98.0389C106.731 99.1321 106.195 100.158 105.554 101.16C104.329 103.076 102.894 104.853 101.361 106.531C99.9718 108.052 98.148 108.981 96.0464 108.827C95.1609 108.762 94.267 108.537 93.4911 108.095C92.5694 107.571 91.5685 105.995 90.3927 106.377C90.279 106.414 90.1729 106.247 90.2712 106.169C91.6286 105.077 93.1693 106.769 94.469 107.177C96.4272 107.791 98.4368 107.112 99.6973 105.532C101.013 103.882 102.224 102.034 103.33 100.237C103.892 99.3252 104.405 98.3783 104.847 97.4024C105.294 96.4174 105.395 95.347 105.762 94.3427ZM102.606 86.5518C102.549 86.377 102.766 86.2107 102.92 86.3106C103.812 86.8903 104.585 87.6562 105.408 88.3276C106.321 89.0725 107.24 89.8022 108.174 90.5207C109.535 91.5683 107.956 93.4969 106.758 92.3525C105.118 90.787 103.322 88.7399 102.606 86.5518ZM97.7087 80.4244C98.0711 79.0295 100.214 79.6047 99.9019 80.9834L99.8917 81.0254C99.3002 83.3027 100.143 85.6211 101.941 87.0974L102.007 87.151C103.145 88.0601 101.533 89.6493 100.407 88.749C97.9471 86.7839 96.924 83.4458 97.7087 80.4244Z" fill="black"/>
<path fill-rule="evenodd" clip-rule="evenodd" d="M115.84 45.8753C115.431 42.2848 115.96 34.7799 115.996 34.3239C116.22 31.4415 114.867 20.0591 112.31 21.1078C108.02 17.7174 102.306 16.9687 96.9632 16.6111C85.8652 15.8681 74.0589 17.5737 65.4892 25.03C61.2512 28.9022 57.1253 34.5341 57.4569 40.3981C53.6064 45.9565 48.178 53.5812 52.9756 60.0794C54.6064 62.1555 57.1982 62.9287 59.2469 64.501C63.3676 67.8191 65.9528 72.581 70.1126 75.8794C81.1332 85.766 99.8463 87.8313 110.674 76.5861C119.047 68.4419 117.693 56.2579 116.22 45.8753C115.23 38.895 116.639 52.88 115.84 45.8753Z" fill="white"/>
<path fill-rule="evenodd" clip-rule="evenodd" d="M82.1377 1.38482C85.1058 0.786871 88.1536 0.414816 91.1846 0.526812L91.4183 0.535873C93.6989 0.626868 96.5871 0.828157 98.5766 2.15208C98.691 2.03743 98.8751 1.97859 99.042 2.05812C101.406 3.18473 104.007 3.99926 106.496 4.80867C108.974 5.61409 111.545 6.14579 114.142 6.3601C115.119 6.44077 115.955 7.49411 115.336 8.43886C115.189 8.66399 115.046 8.8914 114.903 9.11938C115.142 9.09451 115.381 9.06889 115.619 9.04478C116.405 8.96581 117.19 9.80313 117.144 10.567C117.115 11.0474 117.063 11.5222 116.986 11.9912C117.285 11.985 117.583 12.0298 117.87 12.1511C119.326 12.7648 119.225 14.4958 119.116 15.8128C118.965 17.6404 118.28 19.5762 117.009 20.9441C117.958 21.9283 118.63 23.1037 119.031 24.4997C119.321 25.519 119.483 26.6048 119.403 27.6659L119.378 27.9836C119.279 29.1351 119.083 30.41 118.253 31.2384C117.827 31.6655 117.302 31.8212 116.802 31.7718C117.105 34.4256 117.299 37.0945 117.481 39.7539L117.567 41.025C117.974 47.1715 118.28 53.358 118.2 59.5146C118.126 65.2681 116.987 70.8528 113.452 75.5243C110.233 79.7783 105.611 82.9142 100.382 84.1063C97.5639 84.7498 94.687 84.7953 91.8349 84.3853C90.4524 84.186 89.0608 83.8804 87.7486 83.3982C86.2961 82.8629 85.2523 82.0751 84.2749 80.8944C83.8127 80.3345 84.0352 79.1424 84.9556 79.2544C86.3477 79.4229 87.6185 79.626 88.9531 80.037L89.1442 80.0972C90.4735 80.5224 91.8501 80.8394 93.2399 80.9742C96.0865 81.2494 98.9764 80.9723 101.703 80.1105C106.143 78.7058 109.967 75.5756 112.418 71.6424C115.327 66.9804 115.656 61.6881 115.614 56.3274C115.569 50.4451 115.377 44.5593 115.064 38.6831L115.011 37.7038C114.846 34.6799 114.686 31.6541 114.545 28.6283C114.502 27.6792 114.435 26.7225 114.315 25.7753C113.218 25.1337 112.235 24.2491 111.594 23.1576C110.307 23.6891 108.953 24.0726 107.708 24.3782C104.822 25.0866 101.827 25.2586 98.8903 24.815C98.0982 25.1417 97.2903 25.4289 96.47 25.676C96.2483 25.7741 96.0266 25.8706 95.8051 25.9651C93.8274 26.8098 91.8214 27.5255 89.7339 28.0494L89.221 28.1771C88.1224 28.4474 86.9291 28.7137 85.7599 28.7973C85.5679 28.8713 85.3606 28.934 85.1342 28.989C84.0696 29.2472 82.9647 29.3288 81.8735 29.2377C80.8104 29.1485 80.0422 28.0759 80.6278 27.0718C81.0557 26.3391 81.4875 25.6082 81.9229 24.8793C80.4075 25.5095 78.8426 26.0334 77.2644 26.4776C75.6711 26.9256 74.0549 27.3034 72.4366 27.6507C71.5714 27.8349 70.7027 27.9981 69.8394 28.1822C69.2215 28.3132 68.2727 28.3816 67.7686 28.7878C67.2117 29.2339 67.0539 30.2741 66.8426 30.9157C66.565 31.749 66.3045 32.5862 66.0669 33.4328C65.5936 35.1222 65.2057 36.8363 64.9053 38.5675C64.6049 40.3006 64.4031 42.0508 64.2909 43.8067C64.1789 45.5606 64.2282 47.326 64.0477 49.0724C63.9506 49.9987 62.9544 50.4752 62.2186 49.8279C62.1323 49.7519 62.0453 49.6752 61.9591 49.5975L61.8307 49.4805C61.2012 48.911 60.5908 48.3074 60.0871 47.6278C59.9958 47.5025 59.9084 47.3715 59.8266 47.2387C59.8133 47.2387 59.8019 47.2349 59.7886 47.2254L59.6489 47.1205C58.1111 45.9778 55.542 44.488 54.0425 46.3864C53.5647 46.9911 53.3201 47.7612 53.117 48.5041L52.7608 49.8337C52.5303 50.7017 52.3135 51.5745 52.1866 52.4626C51.8995 54.452 52.044 56.745 53.4151 58.3396C53.9627 58.9774 54.7175 59.433 55.5597 59.5525C56.0295 59.6171 56.4935 59.5374 56.9593 59.4785C57.4327 59.4197 57.8889 59.5146 58.3625 59.469C59.1155 59.395 59.4444 60.2948 59.163 60.8604C59.0109 61.1641 58.832 61.4261 58.6287 61.6482C58.7921 61.7887 58.9482 61.9405 59.0984 62.1C59.5433 62.2423 59.9424 62.548 60.2411 62.9523C60.4826 63.2788 60.6079 63.6338 60.629 64.0077C60.6554 64.1007 60.6783 64.1956 60.6994 64.2924L61.1073 64.9534C61.197 65.0984 61.2864 65.2416 61.3761 65.382C62.4142 67.0145 63.5667 68.3964 64.9985 69.6986C66.377 70.9515 67.8732 72.0733 69.1682 73.4173L69.3208 73.5769C70.5281 74.847 71.8007 76.3844 71.3282 78.2312C71.2065 78.7058 70.5428 79.0475 70.1094 78.7267C68.7157 77.694 68.0139 76.0577 66.8314 74.8049C65.6143 73.5141 64.2662 72.3543 63.0457 71.0673C61.8914 69.8524 60.9806 68.4762 60.2944 66.9614C60.0204 67.2632 59.6213 67.4777 59.068 67.5612C58.1173 67.7036 57.231 67.1474 56.8167 66.3255C56.5503 66.4431 56.2786 66.5495 56.0046 66.633C54.5633 67.0734 53.6566 65.4731 54.2004 64.2905C54.4911 63.6565 54.8542 63.106 55.3051 62.6429C53.8959 62.4493 52.4623 61.7222 51.5363 60.8149C49.213 58.5351 48.8935 55.1088 49.4164 52.0621C49.694 50.4467 50.173 48.8123 50.7949 47.2956C50.9031 47.0318 51.0193 46.766 51.1465 46.5041C51.0762 46.5022 51.0039 46.4718 50.9583 46.4129C50.5381 45.8397 50.0268 45.3708 49.7147 44.7292C49.4276 44.1407 49.1084 43.5447 48.8819 42.9316C48.4163 41.6768 48.1881 40.2607 48.036 38.9339C47.7223 36.2175 47.8438 33.5182 48.2604 30.8189C48.9694 26.2214 50.6822 21.8216 53.2055 17.961C53.0681 17.8889 52.9365 17.8019 52.8138 17.699L52.7532 17.6463L52.6547 17.5574C51.9346 16.9069 51.9968 15.6877 52.6547 15.0288L52.8625 14.8209C53.1256 14.5599 53.3525 14.3532 53.7775 14.069C53.8402 14.0271 53.9043 13.9876 53.9691 13.9508C53.7467 13.5404 53.6695 13.0605 53.8244 12.5311C54.3644 10.6868 57.0226 10.7521 58.7075 11.5563C60.5714 9.89557 62.6382 8.45386 64.8785 7.28644C70.214 4.50742 76.247 2.56932 82.1377 1.38482ZM54.5579 49.9608C55.5542 49.6362 56.8776 50.3176 57.7732 50.7277C58.9083 51.2478 59.8742 52.0166 60.8097 52.829C61.2755 53.2352 61.359 53.8996 61.2432 54.4672C61.2316 54.5241 61.2204 54.583 61.2069 54.6418C61.0833 55.2474 60.4064 55.7238 59.8075 55.7067C58.5544 55.6726 57.9576 54.5925 57.2482 53.6775C57.1647 53.8256 57.0601 53.9623 56.9306 54.0648L56.8432 54.1331C56.5489 54.3569 56.2244 54.5357 55.8354 54.5184C55.5597 54.5051 55.2956 54.4349 55.0521 54.3077C54.4436 53.9869 54.1757 53.2011 54.3409 52.5614C54.4436 52.1589 54.6794 51.8438 54.9874 51.6255L54.8726 51.5471C54.6269 51.3764 54.4028 51.1965 54.2282 50.931L54.1888 50.8681H54.204C54.0139 50.5416 54.1377 50.0974 54.5579 49.9608Z" fill="black"/>
<path fill-rule="evenodd" clip-rule="evenodd" d="M96.8369 69.2092C95.5587 68.6886 94.4182 67.8203 93.5845 66.711C93.2946 66.3254 93.2194 65.9182 93.2802 65.5458C93.3486 65.127 93.5968 64.7474 93.9352 64.4928C94.2747 64.2374 94.6994 64.1115 95.11 64.1757C95.4667 64.2315 95.8219 64.4265 96.1029 64.8309L96.1617 64.9118C96.6574 65.5813 97.3033 66.1306 98.0393 66.4847C98.7487 66.826 99.5421 66.9852 100.363 66.8926C101.927 66.7163 103.005 65.872 104.15 64.7255C104.292 64.5808 104.434 64.4315 104.577 64.2798C104.667 64.1423 104.792 64.054 104.931 64.0076C105.085 63.9561 105.26 63.959 105.42 64.0147C105.574 64.0684 105.712 64.1702 105.804 64.3056C105.892 64.4344 105.942 64.5934 105.926 64.7763C105.821 65.9644 105.199 67.0248 104.315 67.8574C103.333 68.7821 102.032 69.4218 100.807 69.6462C99.4573 69.8934 98.0821 69.7163 96.8369 69.2092ZM101.444 50.8799C102.879 51.7512 105.067 53.7829 103.523 55.9429C101.704 57.8475 99.0866 55.6638 97.7966 54.6762C96.6005 53.9108 95.2566 55.8793 96.3664 56.7731C105.688 63.6628 109.471 51.1077 102.17 49.8555C101.366 49.7175 101.067 50.6103 101.444 50.8799ZM84.7395 42.8654C84.8981 40.8995 87.8972 40.4531 88.1955 42.3984C88.4626 44.141 88.1482 45.7418 87.3619 47.3107C86.6107 48.8095 84.7225 48.1102 84.5797 46.7454C84.3883 44.9159 84.6408 44.0883 84.7395 42.8654ZM107.569 41.9951C107.987 41.4484 108.59 41.0752 109.314 41.2861C111.573 41.9453 110.907 45.1482 110.114 46.7072C109.683 47.5539 108.289 47.7686 107.659 47.0231C106.632 45.8075 106.14 43.3798 107.445 42.1824C107.481 42.1205 107.52 42.0581 107.569 41.9951ZM87.3301 34.2633L87.6871 34.201C88.7914 34.0103 90.1644 33.8271 90.9456 34.7134C91.3599 35.1834 91.5025 36.057 90.9456 36.5069C89.966 37.2984 88.883 36.9917 87.7091 37.0587C86.7416 37.1141 85.8118 37.2739 84.8799 37.5399C82.8355 38.1232 81.1697 39.1881 79.4237 40.3574C79.1945 40.5108 78.9607 40.2183 79.07 40.0044C80.0779 38.0334 82.0313 36.4144 83.9878 35.4275C85.0321 34.9008 86.1748 34.4638 87.3301 34.2633ZM105.509 33.3804L105.782 33.4363C108.755 34.0567 112.618 35.2961 114.026 38.2117C114.08 38.624 114.023 38.7124 113.977 38.7701L113.961 38.7893C113.924 38.8386 113.893 38.9066 113.714 38.9627C113.665 38.9509 113.614 38.9383 113.564 38.9251C112.918 38.7562 112.408 38.5236 111.913 38.2822L111.377 38.0186C110.755 37.7142 110.128 37.4209 109.463 37.2043C108.044 36.7423 106.585 36.4169 105.103 36.2431C104.782 36.2054 104.472 36.0972 104.228 35.9117C103.997 35.7356 103.82 35.4919 103.739 35.1679C103.635 34.7485 103.665 34.431 103.89 34.0527C104.059 33.7687 104.302 33.5717 104.58 33.4587C104.864 33.3434 105.187 33.3162 105.509 33.3804Z" fill="black"/>
<path fill-rule="evenodd" clip-rule="evenodd" d="M118.461 52.036C116.152 54.4174 112.298 55.1007 109.227 53.8236C101.341 50.5341 105.201 40.2741 111.283 37.5189C112.043 37.3298 113.057 36.8812 113.983 36.7795C114.066 36.7385 114.249 36.8571 114.469 36.7449C121.176 37.4925 122.703 47.8857 118.461 52.036ZM93.0239 52.6455C90.4348 56.074 85.6212 57.1316 81.6883 55.5379C73.9187 52.4832 76.6745 43.3852 81.9902 39.8184C93.2194 35.606 97.8563 46.3242 93.0239 52.6455ZM76.1812 45.0492C76.174 45.0458 76.1668 45.044 76.1593 45.0406C76.2004 45.0226 76.2415 45.0046 76.2824 44.9861C76.2691 45.0209 76.2546 45.0552 76.2417 45.09C76.2215 45.0761 76.2038 45.06 76.1812 45.0492ZM123.806 41.3432C123.172 41.3446 122.256 41.4486 121.731 41.8876C120.437 37.5306 115.661 33.4982 111.506 36.4386C108.235 37.4889 105.807 39.8182 104.428 42.915C101.94 41.4378 98.0286 42.0686 95.8714 44.022C94.4587 39.3617 90.9818 37.7297 86.8434 37.4889C82.3264 36.7503 77.8242 41.1297 76.4194 44.6429C75.2514 44.5103 73.5061 44.1391 72.4073 44.8588C65.2757 42.9917 52.8072 41.9622 51.3574 42.9996C50.3241 43.3954 49.7571 45.8301 51.2003 45.9615C52.4579 45.7832 51.0535 44.1775 52.3212 44.0023C59.0756 43.5843 65.6326 44.9423 72.3155 45.5121C72.9121 46.3134 74.84 46.5814 75.8684 46.2595C74.2486 52.2192 77.7453 56.2738 82.9846 57.4883C91.0974 59.3488 98.1556 52.1036 96.0342 44.5676C98.4918 43.347 101.319 43.3994 103.996 44.0423C99.5221 60.4792 126.039 59.7417 121.897 42.4509C124.653 43.8195 125.252 41.6194 123.806 41.3432Z" fill="black"/>
</g>
</svg>
